<?xml version="1.0" standalone="no"?>
<!DOCTYPE svg PUBLIC "-//W3C//DTD SVG 20010904//EN"
 "http://www.w3.org/TR/2001/REC-SVG-20010904/DTD/svg10.dtd">
<svg version="1.0" xmlns="http://www.w3.org/2000/svg"
 width="50.000000pt" height="50.000000pt" viewBox="0 0 50.000000 50.000000"
 preserveAspectRatio="xMidYMid meet">

<g transform="translate(0.000000,50.000000) scale(0.100000,-0.100000)"
fill="#000000" stroke="none">
<path d="M116 440 c-43 -14 -65 -38 -71 -84 -10 -62 10 -98 114 -206 l91 -94
95 98 c104 109 124 147 109 211 -5 22 -20 46 -35 57 -36 27 -101 27 -139 0
l-30 -23 -27 20 c-35 25 -70 32 -107 21z m-23 -55 c-3 -9 -8 -14 -10 -11 -3 3
-2 9 2 15 9 16 15 13 8 -4z m127 -5 c6 -11 8 -20 6 -20 -3 0 -10 9 -16 20 -6
11 -8 20 -6 20 3 0 10 -9 16 -20z m198 -5 c-3 -3 -9 2 -12 12 -6 14 -5 15 5 6
7 -7 10 -15 7 -18z m9 -37 c-3 -8 -6 -5 -6 6 -1 11 2 17 5 13 3 -3 4 -12 1
-19z m-164 5 c-7 -2 -19 -2 -25 0 -7 3 -2 5 12 5 14 0 19 -2 13 -5z m-33 -216
c-3 -1 -27 22 -55 53 l-49 55 54 -52 c30 -29 52 -54 50 -56z m149 101 c-2 -2
-27 -23 -54 -48 l-50 -45 45 48 c24 26 48 47 54 47 5 0 7 -1 5 -2z"/>
</g>
</svg>
